<svg version="1.2" baseProfile="tiny-ps" xmlns="http://www.w3.org/2000/svg" viewBox="0 0 402 402" width="402" height="402">
	<title>logo-14</title>
	<style>
		tspan { white-space:pre }
	</style>
	<path id="&lt; " style="opacity: 0.961" fill="#049e04" aria-label="&lt;"  d="M189.01 256.06L189.01 334.7L63.35 258.77L63.35 167.46L189.01 91.98L189.01 171.53L113.52 213.57L189.01 256.06Z" />
	<path id="&gt; " style="opacity: 0.961" fill="#049e04" aria-label="&gt;"  d="M343.08 243.77L217.42 319.7L217.42 241.06L292.9 198.57L217.42 156.53L217.42 76.98L343.08 152.46L343.08 243.77Z" />
	<path id="JM " style="opacity: 0.961" fill="#049e04" aria-label="JM"  d="M307.25 339.88Q306.01 342.02 303.54 342.93Q301.14 343.77 298.02 343.77Q294.96 343.77 293.53 343.71Q292.11 343.58 290.48 343.19Q288.92 342.74 288.01 342.02Q285.93 340.26 285.93 336.56Q285.93 331.23 288.66 331.23Q289.5 331.23 289.96 330.97Q291.19 330.38 291.19 326.94L291.19 293.07Q291.19 291.64 294.9 290.28Q298.67 288.85 302.89 288.85Q309.33 288.85 309.33 291.9L309.33 327.85Q309.33 332.33 308.94 335Q308.55 337.67 307.25 339.88ZM324.54 335Q322.91 335 319.79 335Q316.74 335 315.63 334.55Q314.53 334.09 314.53 333.12L314.53 292.1Q314.53 290.6 318.5 289.76Q322.52 288.85 327.07 288.85Q331.63 288.85 333.57 290.02Q335.52 291.19 335.85 292.49L340.27 309.65L340.85 309.65L345.01 293.27Q345.47 291.51 349.24 290.21Q353.07 288.85 357.63 288.85Q362.17 288.85 364.32 289.56Q366.53 290.28 366.53 291.38L366.53 333.12Q366.53 333.96 362.82 334.48Q359.12 335 353.79 335Q348.46 335 348.46 333.12Q348.46 327.98 349.56 314.85L348.98 314.85L345.6 331.81Q345.4 332.79 343.97 333.25Q342.61 333.7 339.81 333.7Q337.02 333.7 336.37 333.31Q335.78 332.92 335.59 331.81L332.08 314.85L331.5 314.85Q332.66 328.24 332.66 333.12Q332.66 334.81 324.54 335Z" />
</svg>